# xmcd
#
# Track frame offsets:
#	150
#	16820
#	28972
#	40162
#	50980
#	63155
#	75932
#	90235
#	102787
#	110655
#	122632
#	136022
#	150132
#	159907
#
# Disc length: 2322 seconds
#
# Revision: 0
# Processed by: cddbd v1.5.1PL0 Copyright (c) Steve Scherf et al.
# Submitted via: dBpowerAMP V4.0
#
DISCID=9909100e
DTITLE=canario e passarinho - as melhores cd 02
DYEAR=2004
DGENRE=sertanejo
TTITLE0=cabocla tereza
TTITLE1=o lencinho
TTITLE2=canarinho cantador
TTITLE3=boemio triste
TTITLE4=saudades de matao
TTITLE5=a dama de vermelho
TTITLE6=garçon
TTITLE7=nem eu nem o garçon
TTITLE8=vinte namoradas
TTITLE9=almas perdidas
TTITLE10=heroi vencido
TTITLE11=meu passarinho
TTITLE12=mariposa do amor
TTITLE13=valsa dos noivos
EXTD=cd 02 de uma das duplas mais reconhecidas do sertanejo raiz, para fãs do gênero.
EXTT0=
EXTT1=
EXTT2=
EXTT3=
EXTT4=
EXTT5=
EXTT6=
EXTT7=
EXTT8=
EXTT9=
EXTT10=
EXTT11=
EXTT12=
EXTT13=
PLAYORDER=
